<mxfile host="Electron" agent="Mozilla/5.0 (Windows NT 10.0; Win64; x64) AppleWebKit/537.36 (KHTML, like Gecko) draw.io/24.7.8 Chrome/128.0.6613.36 Electron/32.0.1 Safari/537.36" version="24.7.8">
  <diagram id="C5RBs43oDa-KdzZeNtuy" name="Page-1">
    <mxGraphModel dx="1434" dy="884" grid="1" gridSize="10" guides="1" tooltips="1" connect="1" arrows="1" fold="1" page="1" pageScale="1" pageWidth="827" pageHeight="1169" math="0" shadow="0">
      <root>
        <mxCell id="WIyWlLk6GJQsqaUBKTNV-0" />
        <mxCell id="WIyWlLk6GJQsqaUBKTNV-1" parent="WIyWlLk6GJQsqaUBKTNV-0" />
        <mxCell id="owIgP6GizsIObHhbwHTk-3" style="edgeStyle=orthogonalEdgeStyle;rounded=0;orthogonalLoop=1;jettySize=auto;html=1;exitX=0.5;exitY=1;exitDx=0;exitDy=0;exitPerimeter=0;entryX=0.5;entryY=0;entryDx=0;entryDy=0;" edge="1" parent="WIyWlLk6GJQsqaUBKTNV-1" source="owIgP6GizsIObHhbwHTk-0" target="owIgP6GizsIObHhbwHTk-1">
          <mxGeometry relative="1" as="geometry" />
        </mxCell>
        <mxCell id="owIgP6GizsIObHhbwHTk-0" value="Inicio" style="strokeWidth=2;html=1;shape=mxgraph.flowchart.terminator;whiteSpace=wrap;" vertex="1" parent="WIyWlLk6GJQsqaUBKTNV-1">
          <mxGeometry x="364" y="20" width="100" height="60" as="geometry" />
        </mxCell>
        <mxCell id="owIgP6GizsIObHhbwHTk-5" style="edgeStyle=orthogonalEdgeStyle;rounded=0;orthogonalLoop=1;jettySize=auto;html=1;exitX=0.5;exitY=1;exitDx=0;exitDy=0;entryX=0.5;entryY=0;entryDx=0;entryDy=0;" edge="1" parent="WIyWlLk6GJQsqaUBKTNV-1" source="owIgP6GizsIObHhbwHTk-1" target="owIgP6GizsIObHhbwHTk-4">
          <mxGeometry relative="1" as="geometry" />
        </mxCell>
        <mxCell id="owIgP6GizsIObHhbwHTk-1" value="&lt;div&gt;&lt;font style=&quot;font-size: 12px;&quot;&gt;&lt;br&gt;&lt;/font&gt;&lt;/div&gt;&lt;font style=&quot;font-size: 12px;&quot;&gt;Abrir página de inicio de sesión&lt;/font&gt;" style="html=1;strokeWidth=2;shape=manualInput;whiteSpace=wrap;rounded=1;size=26;arcSize=11;" vertex="1" parent="WIyWlLk6GJQsqaUBKTNV-1">
          <mxGeometry x="364" y="130" width="100" height="60" as="geometry" />
        </mxCell>
        <mxCell id="owIgP6GizsIObHhbwHTk-7" style="edgeStyle=orthogonalEdgeStyle;rounded=0;orthogonalLoop=1;jettySize=auto;html=1;exitX=0.5;exitY=1;exitDx=0;exitDy=0;entryX=0.5;entryY=0;entryDx=0;entryDy=0;" edge="1" parent="WIyWlLk6GJQsqaUBKTNV-1" source="owIgP6GizsIObHhbwHTk-4" target="owIgP6GizsIObHhbwHTk-6">
          <mxGeometry relative="1" as="geometry" />
        </mxCell>
        <mxCell id="owIgP6GizsIObHhbwHTk-4" value="Cargar página de inicio de sesión" style="rounded=1;whiteSpace=wrap;html=1;absoluteArcSize=1;arcSize=14;strokeWidth=2;" vertex="1" parent="WIyWlLk6GJQsqaUBKTNV-1">
          <mxGeometry x="364" y="230" width="100" height="100" as="geometry" />
        </mxCell>
        <mxCell id="owIgP6GizsIObHhbwHTk-9" style="edgeStyle=orthogonalEdgeStyle;rounded=0;orthogonalLoop=1;jettySize=auto;html=1;exitX=0.5;exitY=1;exitDx=0;exitDy=0;entryX=0.5;entryY=0;entryDx=0;entryDy=0;" edge="1" parent="WIyWlLk6GJQsqaUBKTNV-1" source="owIgP6GizsIObHhbwHTk-6" target="owIgP6GizsIObHhbwHTk-8">
          <mxGeometry relative="1" as="geometry" />
        </mxCell>
        <mxCell id="owIgP6GizsIObHhbwHTk-6" value="Ingresar email y contraseña" style="html=1;strokeWidth=2;shape=manualInput;whiteSpace=wrap;rounded=1;size=26;arcSize=11;perimeterSpacing=0;shadow=0;recursiveResize=1;resizeWidth=1;resizeHeight=1;" vertex="1" parent="WIyWlLk6GJQsqaUBKTNV-1">
          <mxGeometry x="358" y="370" width="111" height="94" as="geometry" />
        </mxCell>
        <mxCell id="owIgP6GizsIObHhbwHTk-12" value="" style="edgeStyle=orthogonalEdgeStyle;rounded=0;orthogonalLoop=1;jettySize=auto;html=1;" edge="1" parent="WIyWlLk6GJQsqaUBKTNV-1" source="owIgP6GizsIObHhbwHTk-8" target="owIgP6GizsIObHhbwHTk-11">
          <mxGeometry relative="1" as="geometry" />
        </mxCell>
        <mxCell id="owIgP6GizsIObHhbwHTk-8" value="Verificar campos" style="rounded=1;whiteSpace=wrap;html=1;absoluteArcSize=1;arcSize=14;strokeWidth=2;" vertex="1" parent="WIyWlLk6GJQsqaUBKTNV-1">
          <mxGeometry x="364" y="485" width="100" height="65" as="geometry" />
        </mxCell>
        <mxCell id="owIgP6GizsIObHhbwHTk-14" value="" style="edgeStyle=orthogonalEdgeStyle;rounded=0;orthogonalLoop=1;jettySize=auto;html=1;entryX=1;entryY=0.5;entryDx=0;entryDy=0;" edge="1" parent="WIyWlLk6GJQsqaUBKTNV-1" source="owIgP6GizsIObHhbwHTk-11" target="owIgP6GizsIObHhbwHTk-15">
          <mxGeometry relative="1" as="geometry">
            <mxPoint x="314" y="660" as="targetPoint" />
          </mxGeometry>
        </mxCell>
        <mxCell id="owIgP6GizsIObHhbwHTk-16" value="No" style="edgeLabel;html=1;align=center;verticalAlign=middle;resizable=0;points=[];fontSize=12;" vertex="1" connectable="0" parent="owIgP6GizsIObHhbwHTk-14">
          <mxGeometry x="-0.1852" y="2" relative="1" as="geometry">
            <mxPoint as="offset" />
          </mxGeometry>
        </mxCell>
        <mxCell id="owIgP6GizsIObHhbwHTk-19" style="edgeStyle=orthogonalEdgeStyle;rounded=0;orthogonalLoop=1;jettySize=auto;html=1;exitX=0.5;exitY=1;exitDx=0;exitDy=0;" edge="1" parent="WIyWlLk6GJQsqaUBKTNV-1" source="owIgP6GizsIObHhbwHTk-11" target="owIgP6GizsIObHhbwHTk-18">
          <mxGeometry relative="1" as="geometry" />
        </mxCell>
        <mxCell id="owIgP6GizsIObHhbwHTk-22" value="Sí" style="edgeLabel;html=1;align=center;verticalAlign=middle;resizable=0;points=[];spacingLeft=-6;" vertex="1" connectable="0" parent="owIgP6GizsIObHhbwHTk-19">
          <mxGeometry x="-0.04" y="2" relative="1" as="geometry">
            <mxPoint as="offset" />
          </mxGeometry>
        </mxCell>
        <mxCell id="owIgP6GizsIObHhbwHTk-11" value="¿Datos correctos?" style="rhombus;whiteSpace=wrap;html=1;rounded=1;arcSize=14;strokeWidth=2;" vertex="1" parent="WIyWlLk6GJQsqaUBKTNV-1">
          <mxGeometry x="374" y="585" width="80" height="80" as="geometry" />
        </mxCell>
        <mxCell id="owIgP6GizsIObHhbwHTk-17" style="edgeStyle=orthogonalEdgeStyle;rounded=0;orthogonalLoop=1;jettySize=auto;html=1;exitX=0.5;exitY=0;exitDx=0;exitDy=0;entryX=0;entryY=0.5;entryDx=0;entryDy=0;" edge="1" parent="WIyWlLk6GJQsqaUBKTNV-1" source="owIgP6GizsIObHhbwHTk-15" target="owIgP6GizsIObHhbwHTk-6">
          <mxGeometry relative="1" as="geometry" />
        </mxCell>
        <mxCell id="owIgP6GizsIObHhbwHTk-15" value="Mostrar mensaje de error al usuario" style="rounded=1;whiteSpace=wrap;html=1;absoluteArcSize=1;arcSize=14;strokeWidth=2;" vertex="1" parent="WIyWlLk6GJQsqaUBKTNV-1">
          <mxGeometry x="200" y="575" width="100" height="100" as="geometry" />
        </mxCell>
        <mxCell id="owIgP6GizsIObHhbwHTk-21" style="edgeStyle=orthogonalEdgeStyle;rounded=0;orthogonalLoop=1;jettySize=auto;html=1;exitX=0.5;exitY=1;exitDx=0;exitDy=0;" edge="1" parent="WIyWlLk6GJQsqaUBKTNV-1" source="owIgP6GizsIObHhbwHTk-18" target="owIgP6GizsIObHhbwHTk-20">
          <mxGeometry relative="1" as="geometry" />
        </mxCell>
        <mxCell id="owIgP6GizsIObHhbwHTk-18" value="Verificar email en base de datos" style="rounded=1;whiteSpace=wrap;html=1;absoluteArcSize=1;arcSize=14;strokeWidth=2;" vertex="1" parent="WIyWlLk6GJQsqaUBKTNV-1">
          <mxGeometry x="364" y="720" width="100" height="100" as="geometry" />
        </mxCell>
        <mxCell id="owIgP6GizsIObHhbwHTk-24" style="edgeStyle=orthogonalEdgeStyle;rounded=0;orthogonalLoop=1;jettySize=auto;html=1;exitX=0;exitY=0.5;exitDx=0;exitDy=0;" edge="1" parent="WIyWlLk6GJQsqaUBKTNV-1" source="owIgP6GizsIObHhbwHTk-20" target="owIgP6GizsIObHhbwHTk-23">
          <mxGeometry relative="1" as="geometry" />
        </mxCell>
        <mxCell id="owIgP6GizsIObHhbwHTk-25" value="No" style="edgeLabel;html=1;align=center;verticalAlign=middle;resizable=0;points=[];" vertex="1" connectable="0" parent="owIgP6GizsIObHhbwHTk-24">
          <mxGeometry x="-0.1304" relative="1" as="geometry">
            <mxPoint as="offset" />
          </mxGeometry>
        </mxCell>
        <mxCell id="owIgP6GizsIObHhbwHTk-28" style="edgeStyle=orthogonalEdgeStyle;rounded=0;orthogonalLoop=1;jettySize=auto;html=1;exitX=0.5;exitY=1;exitDx=0;exitDy=0;entryX=0.5;entryY=0;entryDx=0;entryDy=0;" edge="1" parent="WIyWlLk6GJQsqaUBKTNV-1" source="owIgP6GizsIObHhbwHTk-20" target="owIgP6GizsIObHhbwHTk-27">
          <mxGeometry relative="1" as="geometry" />
        </mxCell>
        <mxCell id="owIgP6GizsIObHhbwHTk-29" value="Sí" style="edgeLabel;html=1;align=center;verticalAlign=middle;resizable=0;points=[];" vertex="1" connectable="0" parent="owIgP6GizsIObHhbwHTk-28">
          <mxGeometry x="-0.25" y="-2" relative="1" as="geometry">
            <mxPoint as="offset" />
          </mxGeometry>
        </mxCell>
        <mxCell id="owIgP6GizsIObHhbwHTk-20" value="¿Email registrado en base de datos?" style="rhombus;whiteSpace=wrap;html=1;rounded=1;arcSize=14;strokeWidth=2;" vertex="1" parent="WIyWlLk6GJQsqaUBKTNV-1">
          <mxGeometry x="346" y="850" width="136" height="100" as="geometry" />
        </mxCell>
        <mxCell id="owIgP6GizsIObHhbwHTk-26" style="edgeStyle=orthogonalEdgeStyle;rounded=0;orthogonalLoop=1;jettySize=auto;html=1;exitX=0.5;exitY=0;exitDx=0;exitDy=0;entryX=0;entryY=0.5;entryDx=0;entryDy=0;" edge="1" parent="WIyWlLk6GJQsqaUBKTNV-1" source="owIgP6GizsIObHhbwHTk-23" target="owIgP6GizsIObHhbwHTk-6">
          <mxGeometry relative="1" as="geometry" />
        </mxCell>
        <mxCell id="owIgP6GizsIObHhbwHTk-23" value="Mostrar mensaje de error, usuario no registrado" style="rounded=1;whiteSpace=wrap;html=1;absoluteArcSize=1;arcSize=14;strokeWidth=2;" vertex="1" parent="WIyWlLk6GJQsqaUBKTNV-1">
          <mxGeometry x="150" y="850" width="100" height="100" as="geometry" />
        </mxCell>
        <mxCell id="owIgP6GizsIObHhbwHTk-32" style="edgeStyle=orthogonalEdgeStyle;rounded=0;orthogonalLoop=1;jettySize=auto;html=1;exitX=0.5;exitY=1;exitDx=0;exitDy=0;entryX=0.5;entryY=0;entryDx=0;entryDy=0;" edge="1" parent="WIyWlLk6GJQsqaUBKTNV-1" source="owIgP6GizsIObHhbwHTk-27" target="owIgP6GizsIObHhbwHTk-31">
          <mxGeometry relative="1" as="geometry" />
        </mxCell>
        <mxCell id="owIgP6GizsIObHhbwHTk-27" value="Verificar contraseña" style="rounded=1;whiteSpace=wrap;html=1;absoluteArcSize=1;arcSize=14;strokeWidth=2;" vertex="1" parent="WIyWlLk6GJQsqaUBKTNV-1">
          <mxGeometry x="364" y="1020" width="100" height="100" as="geometry" />
        </mxCell>
        <mxCell id="owIgP6GizsIObHhbwHTk-35" style="edgeStyle=orthogonalEdgeStyle;rounded=0;orthogonalLoop=1;jettySize=auto;html=1;exitX=0;exitY=0.5;exitDx=0;exitDy=0;" edge="1" parent="WIyWlLk6GJQsqaUBKTNV-1" source="owIgP6GizsIObHhbwHTk-31" target="owIgP6GizsIObHhbwHTk-34">
          <mxGeometry relative="1" as="geometry" />
        </mxCell>
        <mxCell id="owIgP6GizsIObHhbwHTk-36" value="No" style="edgeLabel;html=1;align=center;verticalAlign=middle;resizable=0;points=[];" vertex="1" connectable="0" parent="owIgP6GizsIObHhbwHTk-35">
          <mxGeometry x="-0.1705" relative="1" as="geometry">
            <mxPoint as="offset" />
          </mxGeometry>
        </mxCell>
        <mxCell id="owIgP6GizsIObHhbwHTk-39" style="edgeStyle=orthogonalEdgeStyle;rounded=0;orthogonalLoop=1;jettySize=auto;html=1;exitX=0.5;exitY=1;exitDx=0;exitDy=0;" edge="1" parent="WIyWlLk6GJQsqaUBKTNV-1" source="owIgP6GizsIObHhbwHTk-31" target="owIgP6GizsIObHhbwHTk-38">
          <mxGeometry relative="1" as="geometry" />
        </mxCell>
        <mxCell id="owIgP6GizsIObHhbwHTk-40" value="Sí" style="edgeLabel;html=1;align=center;verticalAlign=middle;resizable=0;points=[];" vertex="1" connectable="0" parent="owIgP6GizsIObHhbwHTk-39">
          <mxGeometry x="0.2245" y="-2" relative="1" as="geometry">
            <mxPoint x="2" y="-14" as="offset" />
          </mxGeometry>
        </mxCell>
        <mxCell id="owIgP6GizsIObHhbwHTk-31" value="¿La contraseña pertenece al correo electrónico?" style="rhombus;whiteSpace=wrap;html=1;rounded=1;arcSize=14;strokeWidth=2;" vertex="1" parent="WIyWlLk6GJQsqaUBKTNV-1">
          <mxGeometry x="346" y="1169" width="136" height="100" as="geometry" />
        </mxCell>
        <mxCell id="owIgP6GizsIObHhbwHTk-37" style="edgeStyle=orthogonalEdgeStyle;rounded=0;orthogonalLoop=1;jettySize=auto;html=1;exitX=0.5;exitY=0;exitDx=0;exitDy=0;entryX=0;entryY=0.5;entryDx=0;entryDy=0;" edge="1" parent="WIyWlLk6GJQsqaUBKTNV-1" source="owIgP6GizsIObHhbwHTk-34" target="owIgP6GizsIObHhbwHTk-6">
          <mxGeometry relative="1" as="geometry" />
        </mxCell>
        <mxCell id="owIgP6GizsIObHhbwHTk-34" value="Mostrar mensaje de error, contraseña no válida" style="rounded=1;whiteSpace=wrap;html=1;absoluteArcSize=1;arcSize=14;strokeWidth=2;" vertex="1" parent="WIyWlLk6GJQsqaUBKTNV-1">
          <mxGeometry x="80" y="1169" width="100" height="100" as="geometry" />
        </mxCell>
        <mxCell id="owIgP6GizsIObHhbwHTk-38" value="Cargar página de inicio según el tipo de usuario" style="rounded=1;whiteSpace=wrap;html=1;absoluteArcSize=1;arcSize=14;strokeWidth=2;" vertex="1" parent="WIyWlLk6GJQsqaUBKTNV-1">
          <mxGeometry x="364" y="1310" width="100" height="100" as="geometry" />
        </mxCell>
        <mxCell id="owIgP6GizsIObHhbwHTk-41" value="Fin" style="strokeWidth=2;html=1;shape=mxgraph.flowchart.terminator;whiteSpace=wrap;" vertex="1" parent="WIyWlLk6GJQsqaUBKTNV-1">
          <mxGeometry x="364" y="1450" width="100" height="60" as="geometry" />
        </mxCell>
        <mxCell id="owIgP6GizsIObHhbwHTk-49" style="edgeStyle=orthogonalEdgeStyle;rounded=0;orthogonalLoop=1;jettySize=auto;html=1;exitX=0.5;exitY=1;exitDx=0;exitDy=0;entryX=0.5;entryY=0;entryDx=0;entryDy=0;entryPerimeter=0;" edge="1" parent="WIyWlLk6GJQsqaUBKTNV-1" source="owIgP6GizsIObHhbwHTk-38" target="owIgP6GizsIObHhbwHTk-41">
          <mxGeometry relative="1" as="geometry" />
        </mxCell>
      </root>
    </mxGraphModel>
  </diagram>
</mxfile>
